<?xml version="1.0" encoding="UTF-8" standalone="no"?>
<!-- Created with Inkscape (http://www.inkscape.org/) -->

<svg
   width="210mm"
   height="297mm"
   viewBox="0 0 210 297"
   version="1.1"
   id="svg1"
   xml:space="preserve"
   xmlns="http://www.w3.org/2000/svg"
   xmlns:svg="http://www.w3.org/2000/svg"><defs
     id="defs1" /><g
     id="layer1"><path
       style="fill:#000000"
       d="m 87.497382,170.28368 c -0.743039,-0.52045 -1.243448,-2.18628 -1.017903,-3.38854 0.227202,-1.21109 1.478664,-2.29043 2.655689,-2.29043 1.036436,0 2.449194,0.97931 2.024878,1.40363 -0.193213,0.19321 -0.425697,0.14281 -0.767308,-0.16634 -0.684855,-0.61979 -1.97795,-0.56317 -2.590244,0.1134 -0.772966,0.85412 -0.70192,3.03374 0.120596,3.69977 0.859055,0.69562 1.795954,0.63336 2.539317,-0.16874 0.411237,-0.44373 0.687988,-0.57282 0.808836,-0.37729 0.101038,0.16348 -0.08765,0.58608 -0.419303,0.93911 -0.715152,0.76125 -2.431838,0.88173 -3.354558,0.23543 z m 5.244246,-0.29069 c -0.301604,-0.38343 -0.54837,-1.08175 -0.54837,-1.55182 0,-1.31573 0.88008,-2.24896 2.120867,-2.24896 1.131182,0 1.847883,0.68985 1.847883,1.77866 0,0.56011 -0.111914,0.60259 -1.5875,0.60259 -1.703081,0 -2.01702,0.32643 -1.148865,1.19459 0.423416,0.42341 0.700805,0.42038 2.207198,-0.0241 0.659168,-0.19452 0.659708,-0.19322 0.157431,0.37551 -0.751142,0.85051 -2.331744,0.78496 -3.048644,-0.12643 z m 2.62663,-2.29266 c 0,-0.97849 -1.639228,-1.34189 -2.107358,-0.46718 -0.412955,0.77161 -0.36828,0.81114 0.916733,0.81114 0.800534,0 1.190625,-0.11269 1.190625,-0.34396 z m 1.852081,0.74084 c 0,-1.82269 0.0752,-2.24896 0.39688,-2.24896 0.21828,0 0.39687,0.14287 0.39687,0.3175 0,0.24694 0.0706,0.24694 0.3175,0 0.41155,-0.41155 1.61209,-0.41772 1.47538,-0.008 -0.0568,0.17046 -0.37534,0.32996 -0.70782,0.35445 -0.84474,0.0622 -1.07633,0.5576 -1.08101,2.3122 -0.003,1.17413 -0.0946,1.52136 -0.40092,1.52136 -0.32165,0 -0.39688,-0.42628 -0.39688,-2.24896 z m 4.033601,1.94338 c -0.19313,-0.19312 -0.32943,-1.01909 -0.32943,-1.9963 0,-1.30528 -0.0861,-1.66687 -0.39688,-1.66687 -0.21828,0 -0.39687,-0.11907 -0.39687,-0.26459 0,-0.14552 0.17859,-0.26458 0.39687,-0.26458 0.22049,0 0.39688,-0.23519 0.39688,-0.52917 0,-0.29398 0.17639,-0.52916 0.39687,-0.52916 0.22049,0 0.39688,0.23518 0.39688,0.52916 0,0.38806 0.17639,0.52917 0.66146,0.52917 0.3638,0 0.66146,0.11906 0.66146,0.26458 0,0.14552 -0.30334,0.26459 -0.67409,0.26459 -0.65889,0 -0.67231,0.0373 -0.59531,1.65364 0.072,1.51065 0.13006,1.6543 0.67193,1.66116 0.32624,0.004 0.62389,0.12319 0.66146,0.26458 0.1034,0.38918 -1.47442,0.4606 -1.85123,0.0838 z m 2.84557,-1.94338 c 0,-1.82269 0.0752,-2.24896 0.39687,-2.24896 0.32165,0 0.39688,0.42627 0.39688,2.24896 0,1.82268 -0.0752,2.24896 -0.39688,2.24896 -0.32165,0 -0.39687,-0.42628 -0.39687,-2.24896 z m 3.03143,1.64491 c -1.43467,-1.23405 -1.07845,-4.43103 0.5778,-5.18566 1.32608,-0.60421 3.26994,-0.0633 3.26994,0.90992 0,0.49502 -0.37638,0.4879 -0.79375,-0.015 -0.40814,-0.49177 -1.85067,-0.51742 -2.49755,-0.0444 -0.31726,0.23198 -0.52627,0.81307 -0.6115,1.70005 -0.11407,1.18717 -0.0484,1.42868 0.55171,2.02879 0.88619,0.88619 1.83603,0.87664 2.54572,-0.0256 0.37064,-0.47119 0.64415,-0.61859 0.82054,-0.4422 0.17639,0.17639 0.0793,0.50018 -0.29137,0.97137 -0.74551,0.94776 -2.52949,0.99908 -3.57154,0.10274 z m 5.17065,-2.57095 c 0,-1.94028 0.1029,-3.175 0.26459,-3.175 0.14552,0 0.26458,0.55959 0.26458,1.24354 0,0.9672 0.0706,1.17298 0.3175,0.92604 0.5446,-0.5446 1.98639,-0.38511 2.44562,0.27054 0.56969,0.81334 0.58157,3.90988 0.015,3.90988 -0.30807,0 -0.39687,-0.35038 -0.39687,-1.56586 0,-1.97461 -0.16743,-2.40289 -0.93935,-2.40289 -0.90717,0 -1.4419,0.95398 -1.4419,2.57241 0,0.76798 -0.11906,1.39634 -0.26458,1.39634 -0.16169,0 -0.26459,-1.23473 -0.26459,-3.175 z m 5.08,2.8575 c -0.85893,-0.85894 -0.0794,-2.0444 1.60073,-2.43419 0.78932,-0.18313 0.98098,-0.87186 0.31386,-1.12786 -0.22756,-0.0873 -0.7192,-0.0196 -1.09253,0.1505 -0.80299,0.36587 -1.08419,0.1989 -0.6157,-0.3656 0.39941,-0.48126 2.14511,-0.53889 2.59823,-0.0858 0.17884,0.17885 0.3175,1.03579 0.3175,1.96233 0,1.07647 0.11428,1.68564 0.33073,1.76294 0.1819,0.065 0.23601,0.21921 0.12025,0.34276 -0.11575,0.12356 -0.43766,0.0828 -0.71533,-0.0907 -0.31902,-0.19923 -0.56383,-0.21989 -0.66504,-0.0561 -0.22571,0.3652 -1.81134,0.32302 -2.1927,-0.0583 z m 2.05167,-0.59398 c 0.17451,-0.21027 0.27838,-0.60611 0.23083,-0.87964 -0.0737,-0.42418 -0.21294,-0.46413 -0.94635,-0.27158 -0.81482,0.21391 -1.15376,0.88689 -0.68351,1.35714 0.30474,0.30474 1.06852,0.19231 1.39903,-0.20592 z m 2.65792,-1.33748 c 0,-1.82269 0.0752,-2.24896 0.39687,-2.24896 0.32165,0 0.39688,0.42627 0.39688,2.24896 0,1.82268 -0.0752,2.24896 -0.39688,2.24896 -0.32165,0 -0.39687,-0.42628 -0.39687,-2.24896 z m 2.11666,0 c 0,-1.82269 0.0752,-2.24896 0.39688,-2.24896 0.21828,0 0.39687,0.14287 0.39687,0.3175 0,0.24694 0.0706,0.24694 0.3175,0 0.17463,-0.17463 0.6866,-0.3175 1.13771,-0.3175 1.22509,0 1.45521,0.40585 1.45521,2.56646 0,1.51464 -0.0831,1.93146 -0.38528,1.93146 -0.29475,0 -0.40355,-0.45077 -0.46302,-1.91823 -0.0699,-1.72519 -0.13433,-1.92631 -0.64008,-1.99846 -0.96657,-0.1379 -1.42204,0.61417 -1.42204,2.34808 0,1.21793 -0.0887,1.56861 -0.39687,1.56861 -0.32165,0 -0.39688,-0.42628 -0.39688,-2.24896 z m -20.10833,-3.54983 c 0,-0.325 0.17084,-0.55121 0.41627,-0.55121 0.24639,0 0.38137,0.18001 0.33073,0.44109 -0.12873,0.66378 -0.747,0.75492 -0.747,0.11012 z m 17.84513,0.21948 c -0.27266,-0.44117 0.34057,-0.94708 0.70557,-0.58208 0.30531,0.30531 0.11422,0.86972 -0.29445,0.86972 -0.12834,0 -0.31335,-0.12944 -0.41112,-0.28764 z m -34.970091,-4.3456 c -4.076613,-0.88579 -7.759024,-3.81927 -9.583059,-7.63404 -1.550358,-3.24241 -1.955629,-5.5234 -1.808865,-10.1808 0.105043,-3.33341 0.223738,-4.17483 0.845275,-5.99209 2.297939,-6.71875 7.158522,-10.21396 14.210695,-10.21881 4.001439,-0.003 6.767104,0.7924 9.208934,2.64767 0.931011,0.70737 2.929061,3.54328 2.929061,4.15733 0,0.35143 -2.13607,1.95606 -2.6039,1.95606 -0.14278,0 -0.724821,-0.68461 -1.293431,-1.52135 -1.85303,-2.7269 -5.064105,-4.0199 -9.164536,-3.69029 -4.642069,0.37314 -7.631552,2.75847 -9.184426,7.32831 -0.81427,2.39625 -1.025937,8.09739 -0.404134,10.88514 0.901726,4.04274 2.814637,6.70335 5.787391,8.04952 2.105983,0.95366 5.668812,1.20115 7.910471,0.54948 2.720034,-0.79074 4.920534,-2.86439 5.769564,-5.43698 0.19651,-0.59542 0.520781,-1.08258 0.720611,-1.08258 0.19982,0 0.94959,0.29709 1.66615,0.6602 l 1.30283,0.66019 -0.35959,1.01918 c -1.04845,2.97163 -3.176951,5.50839 -5.690701,6.7822 -2.728783,1.38278 -6.828032,1.80702 -10.25834,1.06166 z m 29.761361,-0.13514 c -3.11762,-0.37495 -5.86221,-1.60386 -7.53277,-3.37286 -0.8598,-0.91046 -2.19321,-2.97293 -2.19321,-3.39235 0,-0.3253 2.36632,-1.97035 2.80128,-1.94745 0.13279,0.007 0.658,0.67024 1.16714,1.47387 0.99915,1.57707 2.61701,2.81971 4.3503,3.34135 0.59069,0.17778 2.32414,0.31783 3.85211,0.31124 3.366,-0.0145 5.13179,-0.60237 7.08526,-2.35871 2.6215,-2.35695 3.81231,-5.82877 3.81231,-11.11484 0,-6.62362 -2.03922,-10.8076 -6.20537,-12.73187 -1.51478,-0.69966 -1.89798,-0.76188 -4.6922,-0.76188 -2.64001,0 -3.22758,0.0836 -4.43956,0.63125 -1.72726,0.78056 -3.50111,2.69657 -4.31545,4.66131 -0.33153,0.79987 -0.70389,1.45432 -0.82747,1.45432 -0.44938,0 -2.85294,-1.33881 -2.85294,-1.58912 0,-0.7253 1.14868,-3.11267 2.1108,-4.38698 4.26283,-5.64609 14.43757,-6.15819 20.30882,-1.02216 6.77763,5.92891 7.09247,20.30634 0.58712,26.81169 -3.18909,3.18909 -7.83949,4.61577 -13.01617,3.99319 z"
       id="path1" /></g></svg>
